<?xml version="1.0" encoding="UTF-8" standalone="no"?>
<svg
   version="1.1"
   width="512.6886"
   height="503.76306"
   id="svg1"
   sodipodi:docname="magnifying-glass.svg"
   inkscape:version="1.4.2 (f4327f4, 2025-05-13)"
   xmlns:inkscape="http://www.inkscape.org/namespaces/inkscape"
   xmlns:sodipodi="http://sodipodi.sourceforge.net/DTD/sodipodi-0.dtd"
   xmlns="http://www.w3.org/2000/svg"
   xmlns:svg="http://www.w3.org/2000/svg">
  <defs
     id="defs1" />
  <sodipodi:namedview
     id="namedview1"
     pagecolor="#ffffff"
     bordercolor="#000000"
     borderopacity="0.25"
     inkscape:showpageshadow="2"
     inkscape:pageopacity="0.0"
     inkscape:pagecheckerboard="0"
     inkscape:deskcolor="#d1d1d1"
     inkscape:zoom="2.2792969"
     inkscape:cx="256.21937"
     inkscape:cy="250.73522"
     inkscape:window-width="2560"
     inkscape:window-height="1406"
     inkscape:window-x="-11"
     inkscape:window-y="-11"
     inkscape:window-maximized="1"
     inkscape:current-layer="svg1" />
  <path
     d="m 344.22891,48.943265 c 4.12993,3.77891 8.12533,7.672053 12.07983,11.633057 0.58781,0.541406 1.17563,1.082812 1.78125,1.640625 34.74898,32.537682 54.94782,84.734713 56.50726,131.642623 0.0804,3.53099 0.0963,7.05995 0.0865,10.59175 -8.1e-4,1.12453 -8.1e-4,1.12453 -0.002,2.27179 -0.0725,21.96469 -3.40317,43.00463 -10.37335,63.85321 -0.35167,1.05936 -0.35167,1.05936 -0.71045,2.14013 -2.77135,8.18498 -6.18708,16.03813 -9.85205,23.85987 -0.36392,0.77746 -0.72784,1.55493 -1.10278,2.35595 -2.19303,4.57097 -4.60693,8.7153 -7.59229,12.81983 -0.9761,1.81313 -0.9761,1.81313 -0.0813,3.63239 1.69172,2.76942 3.71289,4.79827 6.01877,7.08529 0.47933,0.47822 0.95867,0.95644 1.45253,1.44915 1.6058,1.59974 3.21862,3.1922 4.83146,4.78483 1.15357,1.14645 2.30666,2.29337 3.45932,3.44073 2.48328,2.47017 4.96952,4.9373 7.458,7.40221 3.93992,3.9033 7.8711,7.81531 11.80076,11.72893 11.17605,11.12777 22.36369,22.24384 33.56024,33.35098 6.18367,6.13443 12.36002,12.27614 18.52873,18.42561 3.89897,3.88594 7.80676,7.76272 11.72145,11.63281 2.44317,2.41958 4.87781,4.84761 7.3102,7.27801 1.12274,1.11848 2.24889,2.23354 3.37882,3.34476 9.93611,9.77797 17.91181,19.2204 18.1985,33.72652 -0.002,1.13454 -0.002,1.13454 -0.005,2.292 -0.002,1.18481 -0.002,1.18481 -0.005,2.39355 -0.19046,9.13113 -2.80568,16.55312 -8.37012,23.85645 -0.55687,0.825 -1.11375,1.65 -1.6875,2.5 -7.36672,7.96402 -17.99269,12.9641 -28.73828,13.65625 -16.25085,0.55165 -26.85777,-6.42837 -38.38991,-17.14728 -4.88751,-4.59463 -9.63508,-9.32799 -14.36887,-14.08002 -1.05573,-1.05601 -2.11168,-2.1118 -3.16783,-3.16739 -2.82583,-2.82554 -5.64859,-5.65411 -8.47074,-8.48331 -2.96499,-2.9713 -5.93288,-5.93972 -8.90043,-8.90846 -5.60088,-5.60397 -11.19921,-11.21048 -16.7966,-16.81794 -6.38026,-6.39149 -12.76341,-12.7801 -19.14678,-19.16848 -13.1142,-13.12461 -26.22483,-26.25279 -39.33305,-39.38337 -2.22359,1.2614 -4.44607,2.52469 -6.66797,3.78906 -0.62322,0.35328 -1.24644,0.70657 -1.88855,1.07056 -3.65037,2.07943 -7.22117,4.24256 -10.75598,6.51538 -16.08484,9.37209 -34.66982,15.25003 -52.6875,19.625 -0.68256,0.1658 -1.36512,0.33161 -2.06836,0.50244 -49.58481,11.57559 -105.91591,2.60869 -149.43946,-23.74854 -4.934416,-3.10521 -9.742896,-6.37335 -14.492186,-9.7539 -0.6297,-0.44731 -1.25941,-0.89461 -1.9082,-1.35547 -8.06704,-5.80684 -15.43146,-12.34876 -22.6001,-19.21582 -1.37335,-1.31537 -2.75818,-2.61872 -4.14404,-3.9209 -6.86077,-6.61148 -12.68105,-13.8739 -18.34766,-21.50781 -0.60159,-0.81042 -0.60159,-0.81042 -1.21533,-1.63721 -6.37747,-8.68974 -11.77922,-17.83077 -16.78467,-27.36279 -0.34418,-0.6542 -0.68836,-1.3084 -1.04296,-1.98243 C 8.5722539,273.05831 0.3408939,244.42283 0.0702739,216.70522 c -0.01,-0.83122 -0.0196,-1.66244 -0.0297,-2.51886 -0.17364,-18.57083 0.0289,-36.43099 4.26796,-54.61004 0.21431,-0.94279 0.42862,-1.88558 0.64942,-2.85694 3.10695,-13.30741 7.5871901,-25.7666 13.3505801,-38.14306 0.32227,-0.69819 0.64454,-1.39638 0.97657,-2.11572 8.70732,-18.666763 19.97246,-35.469797 33.9375,-50.610841 1.93816,-2.11238 3.79617,-4.273418 5.64843,-6.460937 3.50396,-4.007953 7.36063,-7.401097 11.4375,-10.8125 0.87399,-0.761836 1.74797,-1.523672 2.64844,-2.308594 C 142.25245,-13.274188 246.0932,-18.4505 344.22891,48.943265 Z M 148.30874,78.576322 c -0.97324,0.43957 -1.94648,0.87914 -2.94921,1.332031 -13.13609,6.233203 -24.26121,15.061208 -35.05079,24.667967 -0.71671,0.63164 -1.43343,1.26328 -2.17187,1.91406 -22.806213,21.39261 -38.499233,55.44878 -39.996583,86.58935 -1.30017,43.0905 11.08727,78.85906 40.531743,110.82862 26.52912,26.84354 62.68679,40.05955 99.90966,40.6748 36.72253,-0.092 71.44334,-15.66182 97.72705,-41.00683 2.47101,-2.56253 4.74971,-5.24247 7,-8 0.77344,-0.93586 1.54688,-1.87172 2.34375,-2.83594 24.11274,-29.8364 33.77354,-66.82162 30.42481,-104.78809 -0.57873,-4.89358 -1.56928,-9.5982 -2.76856,-14.37597 -0.16629,-0.67998 -0.33258,-1.35996 -0.50391,-2.06055 -7.76089,-31.07232 -25.94368,-58.57699 -51.49609,-77.939448 -0.71801,-0.568477 -1.43602,-1.136953 -2.17578,-1.722657 C 276.21262,82.146197 260.856,74.85455 245.30874,70.576322 c -0.99773,-0.292618 -1.99546,-0.585235 -3.02343,-0.886719 -31.3951,-8.62734 -64.62332,-4.48487 -93.97657,8.886719 z"
     id="path1" />
</svg>
